<svg width="14" height="14" viewBox="0 0 14 14" fill="none" xmlns="http://www.w3.org/2000/svg">
<g clip-path="url(#clip0_2003_1353)">
<path d="M3.21059 2.91406H10.7939C10.8779 2.94353 10.9541 2.99183 11.0165 3.05527C11.079 3.11871 11.1261 3.1956 11.1543 3.28006C11.1824 3.36452 11.1909 3.4543 11.179 3.54253C11.1671 3.63075 11.1351 3.71509 11.0856 3.78906L8.16893 6.9974V11.0807L5.83559 9.33073V6.9974L2.91893 3.78906C2.8694 3.71509 2.83746 3.63075 2.82555 3.54253C2.81365 3.4543 2.82209 3.36452 2.85025 3.28006C2.8784 3.1956 2.92551 3.11871 2.98797 3.05527C3.05043 2.99183 3.12658 2.94353 3.21059 2.91406Z" stroke="#333333" stroke-linecap="round" stroke-linejoin="round"/>
</g>
<defs>
<clipPath id="clip0_2003_1353">
<rect width="14" height="14" fill="white"/>
</clipPath>
</defs>
</svg>
